<svg width="20" height="20" viewBox="0 0 20 20" fill="none" xmlns="http://www.w3.org/2000/svg">
<g clip-path="url(#clip0_617_1035)">
<path d="M1.25 3.53528C2.35625 3.07278 3.9425 2.57403 5.485 2.41903C7.1475 2.25153 8.5575 2.49778 9.375 3.35903V15.5415C8.20625 14.879 6.725 14.7878 5.35875 14.9253C3.88375 15.0753 2.39625 15.5015 1.25 15.939V3.53528ZM10.625 3.35903C11.4425 2.49778 12.8525 2.25153 14.515 2.41903C16.0575 2.57403 17.6438 3.07278 18.75 3.53528V15.939C17.6025 15.5015 16.1163 15.074 14.6413 14.9265C13.2738 14.7878 11.7938 14.8778 10.625 15.5415V3.35903ZM10 2.22903C8.76875 1.17028 6.98375 1.01278 5.35875 1.17528C3.46625 1.36653 1.55625 2.01528 0.36625 2.55653C0.257061 2.60619 0.164469 2.68622 0.0995263 2.78707C0.0345834 2.88792 3.32143e-05 3.00533 0 3.12528L0 16.8753C2.89525e-05 16.9799 0.0262964 17.0827 0.0763964 17.1745C0.126496 17.2663 0.198827 17.3441 0.286764 17.4007C0.3747 17.4573 0.475431 17.4909 0.579729 17.4985C0.684028 17.506 0.78856 17.4873 0.88375 17.444C1.98625 16.944 3.7625 16.3428 5.48375 16.169C7.245 15.9915 8.72125 16.2778 9.5125 17.2653C9.57106 17.3383 9.64527 17.3972 9.72965 17.4377C9.81402 17.4781 9.90642 17.4992 10 17.4992C10.0936 17.4992 10.186 17.4781 10.2704 17.4377C10.3547 17.3972 10.4289 17.3383 10.4875 17.2653C11.2788 16.2778 12.755 15.9915 14.515 16.169C16.2375 16.3428 18.015 16.944 19.1163 17.444C19.2114 17.4873 19.316 17.506 19.4203 17.4985C19.5246 17.4909 19.6253 17.4573 19.7132 17.4007C19.8012 17.3441 19.8735 17.2663 19.9236 17.1745C19.9737 17.0827 20 16.9799 20 16.8753V3.12528C20 3.00533 19.9654 2.88792 19.9005 2.78707C19.8355 2.68622 19.7429 2.60619 19.6337 2.55653C18.4437 2.01528 16.5338 1.36653 14.6413 1.17528C13.0163 1.01153 11.2313 1.17028 10 2.22903Z" fill="#212529"/>
</g>
<defs>
<clipPath id="clip0_617_1035">
<rect width="20" height="20" fill="white"/>
</clipPath>
</defs>
</svg>
